<mxfile host="app.diagrams.net" modified="2021-10-16T17:31:14.634Z" agent="5.0 (Windows NT 10.0; Win64; x64) AppleWebKit/537.36 (KHTML, like Gecko) Chrome/94.0.4606.81 Safari/537.36 Edg/94.0.992.50" etag="_Rc_-kyCe5Rdcslx7szZ" version="15.5.4" type="github">
  <diagram id="kgpKYQtTHZ0yAKxKKP6v" name="Page-1">
    <mxGraphModel dx="865" dy="490" grid="1" gridSize="10" guides="1" tooltips="1" connect="1" arrows="1" fold="1" page="1" pageScale="1" pageWidth="850" pageHeight="1100" math="0" shadow="0">
      <root>
        <mxCell id="0" />
        <mxCell id="1" parent="0" />
        <mxCell id="3nuBFxr9cyL0pnOWT2aG-1" value="Program" style="shape=umlLifeline;perimeter=lifelinePerimeter;container=1;collapsible=0;recursiveResize=0;rounded=0;shadow=0;strokeWidth=1;" parent="1" vertex="1">
          <mxGeometry x="120" y="80" width="100" height="300" as="geometry" />
        </mxCell>
        <mxCell id="3nuBFxr9cyL0pnOWT2aG-2" value="" style="points=[];perimeter=orthogonalPerimeter;rounded=0;shadow=0;strokeWidth=1;" parent="3nuBFxr9cyL0pnOWT2aG-1" vertex="1">
          <mxGeometry x="45" y="70" width="10" height="190" as="geometry" />
        </mxCell>
        <mxCell id="3nuBFxr9cyL0pnOWT2aG-3" value="&quot;move&quot; &quot;north&quot;" style="verticalAlign=bottom;startArrow=oval;endArrow=block;startSize=8;shadow=0;strokeWidth=1;" parent="3nuBFxr9cyL0pnOWT2aG-1" target="3nuBFxr9cyL0pnOWT2aG-2" edge="1">
          <mxGeometry x="-1" y="27" relative="1" as="geometry">
            <mxPoint x="-15" y="70" as="sourcePoint" />
            <mxPoint x="-25" y="17" as="offset" />
          </mxGeometry>
        </mxCell>
        <mxCell id="3nuBFxr9cyL0pnOWT2aG-5" value="Move" style="shape=umlLifeline;perimeter=lifelinePerimeter;container=1;collapsible=0;recursiveResize=0;rounded=0;shadow=0;strokeWidth=1;" parent="1" vertex="1">
          <mxGeometry x="280" y="80" width="100" height="300" as="geometry" />
        </mxCell>
        <mxCell id="3nuBFxr9cyL0pnOWT2aG-6" value="" style="points=[];perimeter=orthogonalPerimeter;rounded=0;shadow=0;strokeWidth=1;" parent="3nuBFxr9cyL0pnOWT2aG-5" vertex="1">
          <mxGeometry x="45" y="80" width="10" height="180" as="geometry" />
        </mxCell>
        <mxCell id="pIEPm5ea6KMqO9KjY3lO-5" value="Do you have &quot;north&quot;&#xa;(Locate)" style="verticalAlign=bottom;endArrow=block;shadow=0;strokeWidth=1;exitX=0.954;exitY=0.246;exitDx=0;exitDy=0;exitPerimeter=0;entryX=-0.117;entryY=0.337;entryDx=0;entryDy=0;entryPerimeter=0;" edge="1" parent="3nuBFxr9cyL0pnOWT2aG-5" target="8FH0varjTQ_JQ80Lfwow-4">
          <mxGeometry relative="1" as="geometry">
            <mxPoint x="55.00000000000023" y="141.74" as="sourcePoint" />
            <mxPoint x="204.96000000000004" y="140" as="targetPoint" />
            <Array as="points" />
          </mxGeometry>
        </mxCell>
        <mxCell id="8FH0varjTQ_JQ80Lfwow-3" value="Location" style="shape=umlLifeline;perimeter=lifelinePerimeter;container=1;collapsible=0;recursiveResize=0;rounded=0;shadow=0;strokeWidth=1;" parent="1" vertex="1">
          <mxGeometry x="430" y="80" width="110" height="300" as="geometry" />
        </mxCell>
        <mxCell id="8FH0varjTQ_JQ80Lfwow-4" value="" style="points=[];perimeter=orthogonalPerimeter;rounded=0;shadow=0;strokeWidth=1;" parent="8FH0varjTQ_JQ80Lfwow-3" vertex="1">
          <mxGeometry x="50" y="80" width="10" height="180" as="geometry" />
        </mxCell>
        <mxCell id="pIEPm5ea6KMqO9KjY3lO-8" value="&lt;span style=&quot;background-color: rgb(255 , 255 , 255)&quot;&gt;&lt;font style=&quot;font-size: 11px&quot;&gt;Path &quot;north&quot;&lt;/font&gt;&lt;/span&gt;" style="text;html=1;strokeColor=none;fillColor=none;align=center;verticalAlign=middle;whiteSpace=wrap;rounded=0;" vertex="1" parent="8FH0varjTQ_JQ80Lfwow-3">
          <mxGeometry x="-29" y="167" width="80" height="30" as="geometry" />
        </mxCell>
        <mxCell id="pIEPm5ea6KMqO9KjY3lO-11" value="" style="verticalAlign=bottom;endArrow=block;shadow=0;strokeWidth=1;exitX=-0.094;exitY=0.941;exitDx=0;exitDy=0;exitPerimeter=0;" edge="1" parent="8FH0varjTQ_JQ80Lfwow-3" source="pIEPm5ea6KMqO9KjY3lO-2">
          <mxGeometry relative="1" as="geometry">
            <mxPoint x="324" y="251" as="sourcePoint" />
            <mxPoint x="-255" y="251" as="targetPoint" />
            <Array as="points" />
          </mxGeometry>
        </mxCell>
        <mxCell id="8FH0varjTQ_JQ80Lfwow-5" value="Path" style="shape=umlLifeline;perimeter=lifelinePerimeter;container=1;collapsible=0;recursiveResize=0;rounded=0;shadow=0;strokeWidth=1;" parent="1" vertex="1">
          <mxGeometry x="590" y="80" width="90" height="300" as="geometry" />
        </mxCell>
        <mxCell id="8FH0varjTQ_JQ80Lfwow-6" value="" style="points=[];perimeter=orthogonalPerimeter;rounded=0;shadow=0;strokeWidth=1;" parent="8FH0varjTQ_JQ80Lfwow-5" vertex="1">
          <mxGeometry x="40" y="80" width="10" height="180" as="geometry" />
        </mxCell>
        <mxCell id="pIEPm5ea6KMqO9KjY3lO-1" value="Player" style="shape=umlLifeline;perimeter=lifelinePerimeter;container=1;collapsible=0;recursiveResize=0;rounded=0;shadow=0;strokeWidth=1;" vertex="1" parent="1">
          <mxGeometry x="720" y="80" width="90" height="300" as="geometry" />
        </mxCell>
        <mxCell id="pIEPm5ea6KMqO9KjY3lO-2" value="" style="points=[];perimeter=orthogonalPerimeter;rounded=0;shadow=0;strokeWidth=1;" vertex="1" parent="pIEPm5ea6KMqO9KjY3lO-1">
          <mxGeometry x="40" y="80" width="10" height="180" as="geometry" />
        </mxCell>
        <mxCell id="3nuBFxr9cyL0pnOWT2aG-9" value="Check for path at &#39;north&#39;" style="verticalAlign=bottom;endArrow=block;shadow=0;strokeWidth=1;exitX=0.954;exitY=0.246;exitDx=0;exitDy=0;exitPerimeter=0;" parent="1" source="3nuBFxr9cyL0pnOWT2aG-2" edge="1">
          <mxGeometry relative="1" as="geometry">
            <mxPoint x="185" y="195" as="sourcePoint" />
            <mxPoint x="324.5" y="195" as="targetPoint" />
            <Array as="points">
              <mxPoint x="275" y="195" />
            </Array>
          </mxGeometry>
        </mxCell>
        <mxCell id="pIEPm5ea6KMqO9KjY3lO-6" value="Are you &quot;north&quot;" style="verticalAlign=bottom;endArrow=block;shadow=0;strokeWidth=1;exitX=0.954;exitY=0.246;exitDx=0;exitDy=0;exitPerimeter=0;entryX=-0.163;entryY=0.37;entryDx=0;entryDy=0;entryPerimeter=0;" edge="1" parent="1">
          <mxGeometry relative="1" as="geometry">
            <mxPoint x="490.0000000000002" y="242.54000000000002" as="sourcePoint" />
            <mxPoint x="633.3700000000001" y="240.00000000000006" as="targetPoint" />
            <Array as="points">
              <mxPoint x="590.46" y="240.8" />
            </Array>
          </mxGeometry>
        </mxCell>
        <mxCell id="pIEPm5ea6KMqO9KjY3lO-7" value="" style="verticalAlign=bottom;endArrow=block;shadow=0;strokeWidth=1;exitX=0;exitY=0.796;exitDx=0;exitDy=0;exitPerimeter=0;" edge="1" parent="1" target="3nuBFxr9cyL0pnOWT2aG-6">
          <mxGeometry relative="1" as="geometry">
            <mxPoint x="630" y="272.36" as="sourcePoint" />
            <mxPoint x="334.8299999999999" y="275.56000000000006" as="targetPoint" />
            <Array as="points" />
          </mxGeometry>
        </mxCell>
        <mxCell id="pIEPm5ea6KMqO9KjY3lO-9" value="" style="verticalAlign=bottom;endArrow=block;shadow=0;strokeWidth=1;entryX=-0.003;entryY=0.87;entryDx=0;entryDy=0;entryPerimeter=0;" edge="1" parent="1">
          <mxGeometry relative="1" as="geometry">
            <mxPoint x="335" y="304" as="sourcePoint" />
            <mxPoint x="759.9700000000003" y="304.19999999999993" as="targetPoint" />
            <Array as="points" />
          </mxGeometry>
        </mxCell>
        <mxCell id="pIEPm5ea6KMqO9KjY3lO-10" value="move to north&#39;s destination" style="text;html=1;align=center;verticalAlign=middle;resizable=0;points=[];autosize=1;strokeColor=none;fillColor=none;fontSize=11;" vertex="1" parent="1">
          <mxGeometry x="485" y="285" width="150" height="20" as="geometry" />
        </mxCell>
        <mxCell id="pIEPm5ea6KMqO9KjY3lO-12" value="move successful" style="text;html=1;align=center;verticalAlign=middle;resizable=0;points=[];autosize=1;strokeColor=none;fillColor=none;fontSize=11;" vertex="1" parent="1">
          <mxGeometry x="360" y="330" width="100" height="20" as="geometry" />
        </mxCell>
      </root>
    </mxGraphModel>
  </diagram>
</mxfile>
